<?xml version="1.0" encoding="UTF-8"?>
<!DOCTYPE svg PUBLIC "-//W3C//DTD SVG 1.1//EN" "http://www.w3.org/Graphics/SVG/1.1/DTD/svg11.dtd">
<!-- Creator: CorelDRAW 2019 (64-Bit) -->
<svg xmlns="http://www.w3.org/2000/svg" xml:space="preserve" width="11.6944in" height="8.27778in" version="1.1" style="shape-rendering:geometricPrecision; text-rendering:geometricPrecision; image-rendering:optimizeQuality; fill-rule:evenodd; clip-rule:evenodd"
viewBox="0 0 11694.44 8277.78"
 xmlns:xlink="http://www.w3.org/1999/xlink"
 xmlns:xodm="http://www.corel.com/coreldraw/odm/2003">
 <defs>
  <style type="text/css">
   <![CDATA[
    .fil2 {fill:#DFDC42}
    .fil1 {fill:#B5DCD8}
    .fil3 {fill:#20BFE8}
    .fil0 {fill:#4FB552}
    .fil4 {fill:#FEFEFE;fill-rule:nonzero}
   ]]>
  </style>
 </defs>
 <g id="Layer_x0020_1">
  <metadata id="CorelCorpID_0Corel-Layer"/>
  <path class="fil0" d="M5171.46 1242.18c163.1,0 295.36,132.28 295.36,295.36 0,163.1 -132.26,295.37 -295.36,295.37 -163.1,0 -295.37,-132.28 -295.37,-295.37 0,-163.08 132.28,-295.36 295.37,-295.36z"/>
  <path class="fil0" d="M2271.26 2013.28c179.68,0 325.41,145.72 325.41,325.42 0,179.68 -145.74,325.4 -325.41,325.4 -179.68,0 -325.41,-145.72 -325.41,-325.4 0,-179.7 145.72,-325.42 325.41,-325.42z"/>
  <path class="fil0" d="M1643.57 3311.3c193.94,0 351.24,157.29 351.24,351.23 0,193.94 -157.29,351.24 -351.24,351.24 -193.94,0 -351.23,-157.29 -351.23,-351.24 0,-193.94 157.28,-351.23 351.23,-351.23z"/>
  <path class="fil0" d="M2183.46 4027.71c213.9,0 387.39,173.49 387.39,387.39 0,213.9 -173.49,387.39 -387.39,387.39 -213.9,0 -387.39,-173.49 -387.39,-387.39 0,-213.9 173.49,-387.39 387.39,-387.39z"/>
  <path class="fil0" d="M5202.06 7012.47c160.57,0 290.78,130.22 290.78,290.78 0,160.56 -130.21,290.77 -290.78,290.77 -160.54,0 -290.76,-130.21 -290.76,-290.77 0,-160.56 130.22,-290.78 290.76,-290.78z"/>
  <path class="fil0" d="M6384.89 6081.24c201.32,0 364.6,163.26 364.6,364.59 0,201.32 -163.28,364.59 -364.6,364.59 -201.3,0 -364.58,-163.28 -364.58,-364.59 0,-201.32 163.28,-364.59 364.58,-364.59z"/>
  <path class="fil1" d="M6953.06 6107.06c172.8,0 312.94,140.14 312.94,312.94 0,172.8 -140.14,312.93 -312.94,312.93 -172.79,0 -312.93,-140.14 -312.93,-312.93 0,-172.8 140.14,-312.94 312.93,-312.94z"/>
  <path class="fil1" d="M6387.78 7076.52c105.04,0 190.22,85.19 190.22,190.22 0,105.04 -85.18,190.22 -190.22,190.22 -105.03,0 -190.22,-85.18 -190.22,-190.22 0,-105.03 85.19,-190.22 190.22,-190.22z"/>
  <path class="fil1" d="M4273.75 5474.93c307.78,0 557.39,249.61 557.39,557.39 0,307.78 -249.61,557.39 -557.39,557.39 -307.78,0 -557.4,-249.61 -557.4,-557.39 0,-307.78 249.62,-557.39 557.4,-557.39z"/>
  <path class="fil0" d="M4334.53 6204.18c195.5,0 354.06,158.57 354.06,354.07 0,195.5 -158.56,354.06 -354.06,354.06 -195.5,0 -354.07,-158.56 -354.07,-354.06 0,-195.5 158.57,-354.07 354.07,-354.07z"/>
  <path class="fil2" d="M4377.14 6789c141.35,0 255.98,114.64 255.98,255.99 0,141.35 -114.64,255.98 -255.98,255.98 -141.35,0 -255.99,-114.64 -255.99,-255.98 0,-141.35 114.64,-255.99 255.99,-255.99z"/>
  <path class="fil0" d="M2266.09 6124.78c193.94,0 351.24,157.29 351.24,351.22 0,193.94 -157.29,351.24 -351.24,351.24 -193.93,0 -351.24,-157.29 -351.24,-351.24 0,-193.93 157.31,-351.22 351.24,-351.22z"/>
  <path class="fil0" d="M3247.48 4941.94c290.9,0 526.85,235.93 526.85,526.85 0,290.9 -235.94,526.85 -526.85,526.85 -290.92,0 -526.85,-235.94 -526.85,-526.85 0,-290.92 235.93,-526.85 526.85,-526.85z"/>
  <path class="fil1" d="M3087.36 3646.25c301.91,0 546.74,244.85 546.74,546.74 0,301.9 -244.83,546.75 -546.74,546.75 -301.89,0 -546.74,-244.85 -546.74,-546.75 0,-301.89 244.85,-546.74 546.74,-546.74z"/>
  <path class="fil2" d="M3593.56 3660.97c136.9,0 247.93,111.03 247.93,247.93 0,136.9 -111.03,247.93 -247.93,247.93 -136.91,0 -247.93,-111.03 -247.93,-247.93 0,-136.91 111.03,-247.93 247.93,-247.93z"/>
  <path class="fil0" d="M3221.65 2720.91c302.33,0 547.52,245.19 547.52,547.51 0,302.32 -245.18,547.52 -547.52,547.52 -302.3,0 -547.5,-245.2 -547.5,-547.52 0,-302.32 245.2,-547.51 547.5,-547.51z"/>
  <path class="fil0" d="M6403.41 2002.94c182.53,0 330.57,148.04 330.57,330.58 0,182.53 -148.04,330.57 -330.57,330.57 -182.53,0 -330.57,-148.04 -330.57,-330.57 0,-182.54 148.04,-330.58 330.57,-330.58z"/>
  <path class="fil0" d="M1165.91 4363.17c96.97,0 175.62,78.64 175.62,175.61 0,96.97 -78.65,175.61 -175.62,175.61 -96.96,0 -175.61,-78.64 -175.61,-175.61 0,-96.97 78.65,-175.61 175.61,-175.61z"/>
  <path class="fil0" d="M1455.18 4999.86c156.15,0 282.79,126.65 282.79,282.81 0,156.14 -126.64,282.78 -282.79,282.78 -156.15,0 -282.8,-126.64 -282.8,-282.78 0,-156.15 126.65,-282.81 282.8,-282.81z"/>
  <path class="fil1" d="M1930.36 5031.04c156.15,0 282.79,126.64 282.79,282.79 0,156.15 -126.64,282.79 -282.79,282.79 -156.15,0 -282.79,-126.64 -282.79,-282.79 0,-156.15 126.64,-282.79 282.79,-282.79z"/>
  <path class="fil3" d="M2121.47 4519.7c156.15,0 282.8,126.64 282.8,282.79 0,156.14 -126.64,282.79 -282.8,282.79 -156.15,0 -282.79,-126.65 -282.79,-282.79 0,-156.15 126.64,-282.79 282.79,-282.79z"/>
  <path class="fil1" d="M1770.23 3482.91c193.94,0 351.24,157.29 351.24,351.22 0,193.94 -157.29,351.24 -351.24,351.24 -193.93,0 -351.22,-157.29 -351.22,-351.24 0,-193.93 157.29,-351.22 351.22,-351.22z"/>
  <path class="fil3" d="M1873.54 3062.06c193.94,0 351.24,157.29 351.24,351.24 0,193.94 -157.29,351.23 -351.24,351.23 -193.93,0 -351.22,-157.29 -351.22,-351.23 0,-193.94 157.29,-351.24 351.22,-351.24z"/>
  <path class="fil3" d="M2116.3 1843.07c159.72,0 289.25,129.54 289.25,289.25 0,159.72 -129.53,289.26 -289.25,289.26 -159.71,0 -289.25,-129.54 -289.25,-289.26 0,-159.71 129.54,-289.25 289.25,-289.25z"/>
  <path class="fil1" d="M2545.01 2292.44c159.72,0 289.26,129.54 289.26,289.25 0,159.72 -129.54,289.25 -289.26,289.25 -159.71,0 -289.25,-129.53 -289.25,-289.25 0,-159.71 129.54,-289.25 289.25,-289.25z"/>
  <path class="fil3" d="M2415.91 1248.74c96.97,0 175.63,78.65 175.63,175.63 0,96.97 -78.65,175.61 -175.63,175.61 -96.97,0 -175.61,-78.64 -175.61,-175.61 0,-96.97 78.64,-175.63 175.61,-175.63z"/>
  <path class="fil3" d="M3299.14 882.1c156.86,0 284.08,127.22 284.08,284.1 0,156.86 -127.22,284.08 -284.08,284.08 -156.86,0 -284.08,-127.22 -284.08,-284.08 0,-156.87 127.22,-284.1 284.08,-284.1z"/>
  <path class="fil0" d="M3598.72 1398.63c156.86,0 284.08,127.22 284.08,284.08 0,156.86 -127.22,284.09 -284.08,284.09 -156.86,0 -284.08,-127.22 -284.08,-284.09 0,-156.86 127.22,-284.08 284.08,-284.08z"/>
  <path class="fil1" d="M3820.82 1331.47c156.86,0 284.08,127.22 284.08,284.09 0,156.86 -127.22,284.09 -284.08,284.09 -156.86,0 -284.09,-127.24 -284.09,-284.09 0,-156.86 127.22,-284.09 284.09,-284.09z"/>
  <path class="fil0" d="M4290.85 1915.14c199.65,0 361.57,161.92 361.57,361.57 0,199.64 -161.92,361.56 -361.57,361.56 -199.64,0 -361.56,-161.91 -361.56,-361.56 0,-199.65 161.91,-361.57 361.56,-361.57z"/>
  <path class="fil0" d="M4404.76 1105.96c96.97,0 175.62,78.64 175.62,175.61 0,96.97 -78.65,175.63 -175.62,175.63 -96.97,0 -175.63,-78.65 -175.63,-175.63 0,-96.97 78.65,-175.61 175.63,-175.61z"/>
  <path class="fil3" d="M4616.26 386.25c176.82,0 320.24,143.42 320.24,320.24 0,176.83 -143.42,320.25 -320.24,320.25 -176.83,0 -320.25,-143.41 -320.25,-320.25 0,-176.82 143.42,-320.24 320.25,-320.24z"/>
  <path class="fil1" d="M5287.73 1295.32c191.09,0 346.07,154.97 346.07,346.07 0,191.08 -154.98,346.07 -346.07,346.07 -191.08,0 -346.07,-154.99 -346.07,-346.07 0,-191.09 154.98,-346.07 346.07,-346.07z"/>
  <path class="fil3" d="M5935.94 891.2c157.61,0 285.44,127.82 285.44,285.43 0,157.61 -127.83,285.44 -285.44,285.44 -157.61,0 -285.43,-127.83 -285.43,-285.44 0,-157.61 127.82,-285.43 285.43,-285.43z"/>
  <path class="fil3" d="M6762.72 1257.99c102.48,0 185.61,83.14 185.61,185.61 0,102.49 -83.13,185.61 -185.61,185.61 -102.5,0 -185.61,-83.12 -185.61,-185.61 0,-102.47 83.11,-185.61 185.61,-185.61z"/>
  <path class="fil3" d="M7230.82 2098.71c98.41,0 178.24,79.82 178.24,178.24 0,98.43 -79.82,178.25 -178.24,178.25 -98.43,0 -178.24,-79.82 -178.24,-178.25 0,-98.42 79.8,-178.24 178.24,-178.24z"/>
  <path class="fil3" d="M6041.85 1687.88c202.5,0 366.74,164.24 366.74,366.72 0,202.5 -164.24,366.74 -366.74,366.74 -202.49,0 -366.72,-164.24 -366.72,-366.74 0,-202.48 164.24,-366.72 366.72,-366.72z"/>
  <path class="fil2" d="M4414.82 2715.75c136.89,0 247.93,111.03 247.93,247.93 0,136.89 -111.04,247.93 -247.93,247.93 -136.91,0 -247.93,-111.04 -247.93,-247.93 0,-136.9 111.03,-247.93 247.93,-247.93z"/>
  <path class="fil2" d="M3842.78 3099.24c82.02,0 148.53,66.52 148.53,148.53 0,82.02 -66.51,148.53 -148.53,148.53 -82.01,0 -148.53,-66.52 -148.53,-148.53 0,-82.01 66.52,-148.53 148.53,-148.53z"/>
  <path class="fil1" d="M3464.41 2281.88c228.17,0 413.22,185.04 413.22,413.21 0,228.17 -185.06,413.22 -413.22,413.22 -228.15,0 -413.21,-185.06 -413.21,-413.22 0,-228.17 185.06,-413.21 413.21,-413.21z"/>
  <path class="fil3" d="M3144.18 2948.18c276.65,0 501.03,224.38 501.03,501.03 0,276.64 -224.37,501.02 -501.03,501.02 -276.65,0 -501.03,-224.37 -501.03,-501.02 0,-276.65 224.38,-501.03 501.03,-501.03z"/>
  <path class="fil2" d="M4321.85 3528.85c175.62,0 318.07,142.44 318.07,318.07 0,175.64 -142.44,318.08 -318.07,318.08 -175.64,0 -318.08,-142.44 -318.08,-318.08 0,-175.62 142.44,-318.07 318.08,-318.07z"/>
  <path class="fil3" d="M3164.85 4513.24c208.19,0 377.06,168.86 377.06,377.06 0,208.19 -168.86,377.06 -377.06,377.06 -208.21,0 -377.07,-168.86 -377.07,-377.06 0,-208.2 168.86,-377.06 377.07,-377.06z"/>
  <path class="fil1" d="M2818.78 5226.03c222.46,0 402.87,180.42 402.87,402.89 0,222.46 -180.42,402.88 -402.87,402.88 -222.46,0 -402.89,-180.42 -402.89,-402.88 0,-222.47 180.43,-402.89 402.89,-402.89z"/>
  <path class="fil3" d="M2402.93 5464.41c110.83,0 200.71,89.89 200.71,200.71 0,110.82 -89.87,200.71 -200.71,200.71 -110.82,0 -200.7,-89.89 -200.7,-200.71 0,-110.82 89.88,-200.71 200.7,-200.71z"/>
  <path class="fil1" d="M2010.37 6106.7c92.72,0 167.92,75.19 167.92,167.9 0,92.72 -75.2,167.92 -167.92,167.92 -92.72,0 -167.92,-75.19 -167.92,-167.92 0,-92.71 75.19,-167.9 167.92,-167.9z"/>
  <path class="fil1" d="M2694.82 6455.33c165.4,0 299.57,134.17 299.57,299.58 0,165.43 -134.17,299.59 -299.57,299.59 -165.43,0 -299.6,-134.16 -299.6,-299.59 0,-165.42 134.17,-299.58 299.6,-299.58z"/>
  <path class="fil2" d="M3578.06 5876.83c128.35,0 232.43,104.1 232.43,232.44 0,128.33 -104.08,232.43 -232.43,232.43 -128.35,0 -232.43,-104.09 -232.43,-232.43 0,-128.35 104.08,-232.44 232.43,-232.44z"/>
  <path class="fil2" d="M4259.86 5897.5c162.57,0 294.42,131.85 294.42,294.42 0,162.57 -131.85,294.42 -294.42,294.42 -162.57,0 -294.42,-131.85 -294.42,-294.42 0,-162.57 131.85,-294.42 294.42,-294.42z"/>
  <path class="fil3" d="M4587.62 5878.78c195.5,0 354.06,158.56 354.06,354.06 0,195.52 -158.56,354.07 -354.06,354.07 -195.51,0 -354.07,-158.56 -354.07,-354.07 0,-195.5 158.56,-354.06 354.07,-354.06z"/>
  <path class="fil2" d="M3803.8 6653.7c87.71,0 158.86,71.14 158.86,158.86 0,87.71 -71.15,158.86 -158.86,158.86 -87.72,0 -158.86,-71.15 -158.86,-158.86 0,-87.72 71.14,-158.86 158.86,-158.86z"/>
  <path class="fil0" d="M3461.56 6960.61c164.09,0 297.18,133.07 297.18,297.17 0,164.08 -133.08,297.17 -297.18,297.17 -164.09,0 -297.15,-133.08 -297.15,-297.17 0,-164.09 133.07,-297.17 297.15,-297.17z"/>
  <path class="fil1" d="M3986.11 6985.01c192.39,0 348.42,156.03 348.42,348.42 0,192.39 -156.03,348.42 -348.42,348.42 -192.39,0 -348.42,-156.03 -348.42,-348.42 0,-192.39 156.03,-348.42 348.42,-348.42z"/>
  <path class="fil0" d="M4311.51 7498.71c111.24,0 201.44,90.21 201.44,201.44 0,111.23 -90.21,201.44 -201.44,201.44 -111.24,0 -201.44,-90.21 -201.44,-201.44 0,-111.23 90.21,-201.44 201.44,-201.44z"/>
  <path class="fil1" d="M5425.67 7074.46c160.57,0 290.78,130.21 290.78,290.77 0,160.56 -130.21,290.77 -290.78,290.77 -160.56,0 -290.76,-130.21 -290.76,-290.77 0,-160.56 130.21,-290.77 290.76,-290.77z"/>
  <path class="fil1" d="M5734.08 5848.81c235.54,0 426.57,191.03 426.57,426.57 0,235.54 -191.03,426.57 -426.57,426.57 -235.54,0 -426.58,-191.03 -426.58,-426.57 0,-235.54 191.04,-426.57 426.58,-426.57z"/>
  <path class="fil2" d="M6627.65 5879.8c172.79,0 312.94,140.14 312.94,312.94 0,172.8 -140.15,312.93 -312.94,312.93 -172.79,0 -312.94,-140.14 -312.94,-312.93 0,-172.8 140.15,-312.94 312.94,-312.94z"/>
  <path class="fil2" d="M7555.25 5874.57c143.86,0 260.53,116.67 260.53,260.53 0,143.86 -116.67,260.54 -260.53,260.54 -143.86,0 -260.53,-116.68 -260.53,-260.54 0,-143.86 116.67,-260.53 260.53,-260.53z"/>
  <path class="fil2" d="M7280.59 6684.39c88.61,0 160.49,71.87 160.49,160.49 0,88.62 -71.88,160.5 -160.49,160.5 -88.63,0 -160.5,-71.88 -160.5,-160.5 0,-88.61 71.87,-160.49 160.5,-160.49z"/>
  <path class="fil2" d="M6555.73 6839.2c130,0 235.43,105.43 235.43,235.43 0,130 -105.43,235.43 -235.43,235.43 -129.98,0 -235.41,-105.44 -235.41,-235.43 0,-130 105.43,-235.43 235.41,-235.43z"/>
  <path class="fil2" d="M4267.01 4602.8c227.07,0 411.22,184.17 411.22,411.22 0,227.08 -184.15,411.24 -411.22,411.24 -227.07,0 -411.24,-184.15 -411.24,-411.24 0,-227.06 184.17,-411.22 411.24,-411.22z"/>
  <path class="fil3" d="M3262.98 5690.89c165.42,0 299.58,134.17 299.58,299.58 0,165.42 -134.17,299.59 -299.58,299.59 -165.42,0 -299.58,-134.17 -299.58,-299.59 0,-165.41 134.17,-299.58 299.58,-299.58z"/>
  <path class="fil2" d="M5486.15 5822.97c235.54,0 426.57,191.04 426.57,426.59 0,235.54 -191.03,426.56 -426.57,426.56 -235.54,0 -426.58,-191.02 -426.58,-426.56 0,-235.54 191.04,-426.59 426.58,-426.59z"/>
  <path class="fil2" d="M5472.15 7033.14c149.15,0 270.13,120.96 270.13,270.11 0,149.15 -120.97,270.11 -270.13,270.11 -149.14,0 -270.11,-120.96 -270.11,-270.11 0,-149.15 120.97,-270.11 270.11,-270.11z"/>
  <path class="fil3" d="M3170.01 1687.88c199.64,0 361.56,161.92 361.56,361.56 0,199.65 -161.92,361.57 -361.56,361.57 -199.65,0 -361.57,-161.91 -361.57,-361.57 0,-199.64 161.92,-361.56 361.57,-361.56z"/>
  <path class="fil3" d="M4605.93 1512.25c285.21,0 516.51,231.32 516.51,516.53 0,285.21 -231.3,516.52 -516.51,516.52 -285.21,0 -516.52,-231.31 -516.52,-516.52 0,-285.21 231.31,-516.53 516.52,-516.53z"/>
  <path class="fil3" d="M6975.98 2842.96c101.86,0 184.46,82.58 184.46,184.46 0,101.85 -82.59,184.46 -184.46,184.46 -101.86,0 -184.46,-82.61 -184.46,-184.46 0,-101.87 82.59,-184.46 184.46,-184.46z"/>
  <path class="fil4" d="M9088.07 5001.71l-350.42 0 0 0 299.56 -2165.43 391.61 0 0 0 494.12 1498.25 0 0 207.25 -1498.25 350.4 0 0 0 -299.51 2165.43 -363.49 0 -514.13 -1557.07 0 0 -215.4 1557.07zm-4210.46 0l299.51 -2165.43 372.53 0 0 0 -111.4 805.46 689.81 0 0 0 111.39 -805.46 372.56 0 0 0 -299.5 2165.43 -372.57 0 0 0 134.93 -975.39 -689.79 0 0 0 -134.93 975.39 -372.53 0zm2094.85 -635.5l78.81 -569.64 68.26 -493.6c-41.35,20.65 -87.99,32.26 -137.35,32.26 -52.07,0 -101.14,-12.94 -144.15,-35.76 -30.68,-14.25 -58.6,-33.48 -82.7,-56.67l-76.61 553.76 -166.69 1205.14 372.54 0 87.89 -635.5zm373.82 -1154.33l818.97 0c89.5,0 152.53,24.11 189.11,72.39 36.64,47.75 48,121.65 34.31,220.7 -13.72,99.06 -46.97,172.46 -100.35,220.21 -50.36,45.11 -119.75,68.68 -208.59,71.4l-441.8 0 68.28 -493.6 -372.54 0 -68.26 493.6 -166.7 1205.14 372.52 0 116.57 -842.64 411.26 0c94.51,0 157.35,25.63 189.39,77.44 32.64,51.26 39.26,137.72 20.56,258.37l-18.63 123.7c-10.24,66.86 -16.44,137.25 -18.07,210.64 -2.17,73.92 0.54,130.72 8.06,170.96l405.21 0 7.52 -54.29c-27.64,-14.58 -43.78,-39.74 -48.96,-74.92 -4.62,-35.68 -0.89,-99.07 11.78,-190.57l33.58 -242.82c28.52,-206.13 -8.94,-353.43 -113.04,-440.42 -12.04,-11.06 -26.3,-20.61 -42.67,-29.65 42.24,-21.61 81.18,-48.76 117.28,-80.94 119.9,-107.08 192.71,-255.43 218.93,-444.94 27.26,-197.08 -4.22,-347.42 -94.56,-450.48 -90.31,-103.06 -235.53,-154.86 -436.11,-154.86l-1048.78 0c41.65,52.52 66.53,118.93 66.53,191.14 0,69.18 -22.83,133.04 -61.39,184.46l150.6 0z"/>
  <polygon class="fil4" points="4877.61,5538.24 4877.61,5262.5 4925.04,5262.5 4925.04,5365.06 5012.89,5365.06 5012.89,5262.5 5060.33,5262.5 5060.33,5538.24 5012.89,5538.24 5012.89,5414.03 4925.04,5414.03 4925.04,5538.24 "/>
  <path class="fil4" d="M5287.68 5445.02c0,32.14 -7.89,56.86 -23.62,74.28 -15.76,17.33 -38.29,26.04 -67.56,26.04 -29.11,0 -51.6,-8.71 -67.41,-26.04 -15.82,-17.42 -23.76,-42.14 -23.76,-74.28l0 -182.52 47.44 0 0 179.32c0,17.87 3.72,31.43 11.14,40.65 7.49,9.28 18.32,13.89 32.59,13.89 14.29,0 25.09,-4.61 32.59,-13.89 7.42,-9.22 11.14,-22.78 11.14,-40.65l0 -179.32 47.44 0 0 182.52z"/>
  <polygon class="fil4" points="5375.64,5538.24 5331.91,5538.24 5331.91,5262.5 5400.8,5262.5 5400.8,5262.5 5442.4,5481.38 5442.35,5481.38 5442.35,5481.38 5482.5,5262.5 5550.79,5262.5 5550.79,5538.24 5507.07,5538.24 5507.07,5308.26 5464.7,5538.24 5418.22,5538.24 5375.5,5306.42 5375.64,5306.42 "/>
  <path class="fil4" d="M5578.59 5538.24l80.47 -275.74 54.22 0 80.29 275.74 -50.64 0 0 0 -14.87 -55.89 -84.87 0 0 0 -15.37 55.89 -49.22 0zm107.68 -213.64l-29.78 108.78 59.04 0 0 0 -29.33 -108.78 0.07 0z"/>
  <polygon class="fil4" points="5866.32,5538.24 5821.69,5538.24 5821.69,5262.5 5871.56,5262.5 5871.56,5262.5 5960.86,5453.28 5960.86,5262.5 6005.48,5262.5 6005.48,5538.24 5959.2,5538.24 5866.32,5339.96 "/>
  <polygon class="fil4" points="6134.56,5538.24 6134.56,5262.5 6182,5262.5 6182,5538.24 "/>
  <path class="fil4" d="M6347.94 5345.21l0 0c-0.59,-12.98 -4.89,-23.3 -12.82,-30.91 -7.93,-7.63 -18.39,-11.46 -31.25,-11.46 -12.92,0 -23.11,3.13 -30.58,9.35 -7.52,6.26 -11.26,14.78 -11.26,25.54 0,8.26 3.37,14.72 10.09,19.53 6.78,4.72 19.52,9.47 38.29,14.21 34.38,8.78 57.99,19.26 70.86,31.56 12.81,12.1 19.22,30.03 19.22,53.78 0,27.79 -8.09,49.5 -24.21,65.12 -16.15,15.61 -38.47,23.42 -66.97,23.42 -29.89,0 -53,-7.98 -69.39,-24.06 -16.4,-16.07 -24.78,-38.93 -25.31,-68.58l45.6 0 0 0c0.25,14.54 4.6,25.68 13.11,33.48 8.52,7.82 20.5,11.72 35.99,11.72 14.28,0 25.56,-3.14 33.86,-9.41 8.33,-6.22 12.49,-14.67 12.49,-25.3 0,-9.6 -4.1,-17.21 -12.28,-22.72 -8.07,-5.5 -23.44,-11.07 -46.09,-16.83 -30.09,-7.75 -50.83,-17.6 -62.17,-29.44 -11.32,-11.78 -16.97,-29.53 -16.97,-53.28 0,-26.75 7.56,-47.69 22.67,-62.86 15.18,-15.11 36.18,-22.68 63.06,-22.68 27.28,0 48.59,7.82 64.03,23.37 15.48,15.57 23.87,37.71 25.22,66.46l-45.18 0z"/>
  <polygon class="fil4" points="6436.08,5538.24 6436.08,5262.5 6483.51,5262.5 6483.51,5489.26 6595.87,5489.26 6595.87,5538.24 "/>
  <polygon class="fil4" points="6628.54,5538.24 6628.54,5262.5 6795.89,5262.5 6795.89,5311.47 6675.97,5311.47 6675.97,5369.22 6785.51,5369.22 6785.51,5418.2 6675.97,5418.2 6675.97,5489.26 6800.18,5489.26 6800.18,5538.24 "/>
  <polygon class="fil4" points="6887.37,5538.24 6887.37,5311.47 6819.12,5311.47 6819.12,5262.5 7002.86,5262.5 7002.86,5311.47 6934.82,5311.47 6934.82,5538.24 "/>
  <path class="fil4" d="M7118.62 5538.24l0 -275.74 23.63 0 83.48 0c25.56,0 44.93,6.59 58.25,19.71 13.32,13.13 19.98,32.28 19.98,57.36 0,24.14 -6.67,43.03 -20.04,56.65 -4.04,4.13 -8.52,7.57 -13.52,10.32l0 0c2.25,1.15 4.24,2.37 5.96,3.78 14.78,11.08 22.15,29.83 22.15,56.08l0 30.92c0,11.65 0.64,19.74 1.85,24.26 1.29,4.48 3.78,7.69 7.56,9.56l0 6.89 -51.61 0c-1.65,-5.11 -3,-12.33 -4.02,-21.76 -1.1,-9.33 -1.56,-18.3 -1.42,-26.82l0.2 -15.75c0.25,-15.36 -2.11,-26.36 -7.17,-32.9 -4.98,-6.59 -13.46,-9.86 -25.48,-9.86l-52.37 0 0 107.3 -47.43 0zm47.43 -153.46l54.24 0c12.28,0 21.37,-3.02 27.33,-9.1 5.94,-6.08 8.91,-15.43 8.91,-28.04 0,-12.61 -2.75,-22.02 -8.26,-28.1 -5.5,-6.15 -13.96,-9.21 -25.35,-9.21l-56.86 0 0 74.44z"/>
  <polygon class="fil4" points="7345.97,5538.24 7345.97,5262.5 7513.32,5262.5 7513.32,5311.47 7393.4,5311.47 7393.4,5369.22 7502.93,5369.22 7502.93,5418.2 7393.4,5418.2 7393.4,5489.26 7517.61,5489.26 7517.61,5538.24 "/>
  <path class="fil4" d="M7677.91 5345.21l0 0c-0.58,-12.98 -4.87,-23.3 -12.8,-30.91 -7.93,-7.63 -18.39,-11.46 -31.25,-11.46 -12.92,0 -23.11,3.13 -30.58,9.35 -7.5,6.26 -11.28,14.78 -11.28,25.54 0,8.26 3.39,14.72 10.11,19.53 6.78,4.72 19.53,9.47 38.29,14.21 34.37,8.78 58,19.26 70.86,31.56 12.8,12.1 19.22,30.03 19.22,53.78 0,27.79 -8.08,49.5 -24.21,65.12 -16.14,15.61 -38.47,23.42 -66.97,23.42 -29.87,0 -53,-7.98 -69.39,-24.06 -16.4,-16.07 -24.78,-38.93 -25.3,-68.58l45.59 0 0 0c0.25,14.54 4.6,25.68 13.11,33.48 8.53,7.82 20.5,11.72 35.98,11.72 14.29,0 25.56,-3.14 33.86,-9.41 8.35,-6.22 12.48,-14.67 12.48,-25.3 0,-9.6 -4.08,-17.21 -12.28,-22.72 -8.07,-5.5 -23.44,-11.07 -46.1,-16.83 -30.08,-7.75 -50.83,-17.6 -62.17,-29.44 -11.32,-11.78 -16.97,-29.53 -16.97,-53.28 0,-26.75 7.56,-47.69 22.67,-62.86 15.18,-15.11 36.18,-22.68 63.06,-22.68 27.28,0 48.6,7.82 64.03,23.37 15.49,15.57 23.88,37.71 25.22,66.46l-45.2 0z"/>
  <polygon class="fil4" points="7766.08,5538.24 7766.08,5262.5 7933.41,5262.5 7933.41,5311.47 7813.5,5311.47 7813.5,5369.22 7923.04,5369.22 7923.04,5418.2 7813.5,5418.2 7813.5,5489.26 7937.7,5489.26 7937.7,5538.24 "/>
  <path class="fil4" d="M7958.51 5538.24l80.47 -275.74 54.24 0 80.28 275.74 -50.63 0 0 0 -14.87 -55.89 -84.88 0 0 0 -15.39 55.89 -49.22 0zm107.68 -213.64l-29.76 108.78 59.03 0 0 0 -29.31 -108.78 0.04 0z"/>
  <path class="fil4" d="M8203.47 5538.24l0 -275.74 23.63 0 83.49 0c25.56,0 44.93,6.59 58.25,19.71 13.32,13.13 19.99,32.28 19.99,57.36 0,24.14 -6.67,43.03 -20.04,56.65 -4.04,4.13 -8.51,7.57 -13.51,10.32l0 0c2.25,1.15 4.24,2.37 5.96,3.78 14.78,11.08 22.15,29.83 22.15,56.08l0 30.92c0,11.65 0.64,19.74 1.85,24.26 1.29,4.48 3.78,7.69 7.56,9.56l0 6.89 -51.61 0c-1.65,-5.11 -3,-12.33 -4.02,-21.76 -1.09,-9.33 -1.56,-18.3 -1.43,-26.82l0.21 -15.75c0.25,-15.36 -2.11,-26.36 -7.18,-32.9 -4.97,-6.59 -13.44,-9.86 -25.47,-9.86l-52.37 0 0 107.3 -47.43 0zm47.43 -153.46l54.24 0c12.28,0 21.37,-3.02 27.33,-9.1 5.94,-6.08 8.91,-15.43 8.91,-28.04 0,-12.61 -2.75,-22.02 -8.26,-28.1 -5.5,-6.15 -13.96,-9.21 -25.35,-9.21l-56.86 0 0 74.44z"/>
  <path class="fil4" d="M8622.5 5443.88l0 0c-3.39,31.09 -13.77,55.8 -31.25,74.07 -17.42,18.24 -39.25,27.39 -65.56,27.39 -32.07,0 -57.63,-13.06 -76.52,-39.11 -18.89,-26.07 -28.29,-61.26 -28.29,-105.71 0,-44.48 9.41,-79.83 28.29,-105.94 18.89,-26.11 44.44,-39.19 76.52,-39.19 26.44,0 48.33,8.86 65.75,26.46 17.47,17.6 27.79,41.49 31.06,71.64l-47.44 0 0 0c-1.61,-15.12 -6.85,-27.09 -15.75,-35.91 -8.9,-8.78 -20.11,-13.2 -33.61,-13.2 -17.47,0 -31.43,8.64 -41.81,26 -10.37,17.28 -15.56,40.72 -15.56,70.15 0,29.4 5.18,52.69 15.49,69.98 10.32,17.22 24.26,25.86 41.87,25.86 13.37,0 24.51,-4.74 33.4,-14.14 8.91,-9.49 14.22,-22.22 15.96,-38.35l47.44 0z"/>
  <polygon class="fil4" points="8656.68,5538.24 8656.68,5262.5 8704.11,5262.5 8704.11,5365.06 8791.96,5365.06 8791.96,5262.5 8839.4,5262.5 8839.4,5538.24 8791.96,5538.24 8791.96,5414.03 8704.11,5414.03 8704.11,5538.24 "/>
  <polygon class="fil4" points="9015.85,5538.24 8971.22,5538.24 8971.22,5262.5 9021.08,5262.5 9021.08,5262.5 9110.39,5453.28 9110.39,5262.5 9155.01,5262.5 9155.01,5538.24 9108.73,5538.24 9015.85,5339.96 "/>
  <polygon class="fil4" points="9200.41,5538.24 9200.41,5262.5 9367.76,5262.5 9367.76,5311.47 9247.85,5311.47 9247.85,5369.22 9357.39,5369.22 9357.39,5418.2 9247.85,5418.2 9247.85,5489.26 9372.06,5489.26 9372.06,5538.24 "/>
  <polygon class="fil4" points="9459.25,5538.24 9459.25,5311.47 9391,5311.47 9391,5262.5 9574.73,5262.5 9574.73,5311.47 9506.69,5311.47 9506.69,5538.24 "/>
  <polygon class="fil4" points="9648.11,5538.24 9584.17,5262.5 9633.85,5262.5 9633.85,5262.5 9671.73,5463.2 9671.8,5463.2 9671.8,5463.2 9702.73,5262.5 9752.22,5262.5 9786.54,5464.17 9786.46,5464.17 9786.46,5464.17 9824.37,5262.5 9871.68,5262.5 9871.68,5262.5 9808.48,5538.24 9763.48,5538.24 9727.44,5320.43 9727.44,5320.43 9691.65,5538.24 "/>
  <path class="fil4" d="M9998.96 5545.33c-33.28,0 -59.72,-13.06 -79.26,-39.11 -19.57,-26.07 -29.39,-61.26 -29.39,-105.71 0,-44.48 9.82,-79.83 29.39,-105.94 19.54,-26.11 45.98,-39.19 79.26,-39.19 33.36,0 59.86,13.08 79.39,39.19 19.59,26.11 29.39,61.46 29.39,105.94 0,44.44 -9.79,79.64 -29.39,105.71 -19.53,26.06 -46.03,39.11 -79.39,39.11zm0 -48.97c18.76,0 33.68,-8.64 44.75,-25.86 11.09,-17.29 16.59,-40.58 16.59,-69.98 0,-29.43 -5.5,-52.87 -16.52,-70.15 -11,-17.36 -25.93,-26 -44.82,-26 -18.82,0 -33.67,8.64 -44.68,26 -11.01,17.28 -16.53,40.72 -16.53,70.15 0,29.4 5.52,52.69 16.53,69.98 11.02,17.22 25.86,25.86 44.68,25.86z"/>
  <path class="fil4" d="M10145.39 5538.24l0 -275.74 23.63 0 83.47 0c25.56,0 44.93,6.59 58.25,19.71 13.33,13.13 20,32.28 20,57.36 0,24.14 -6.67,43.03 -20.04,56.65 -4.04,4.13 -8.52,7.57 -13.53,10.32l0 0c2.26,1.15 4.25,2.37 5.97,3.78 14.78,11.08 22.14,29.83 22.14,56.08l0 30.92c0,11.65 0.64,19.74 1.86,24.26 1.28,4.48 3.76,7.69 7.56,9.56l0 6.89 -51.61 0c-1.65,-5.11 -3,-12.33 -4.03,-21.76 -1.09,-9.33 -1.54,-18.3 -1.42,-26.82l0.19 -15.75c0.26,-15.36 -2.11,-26.36 -7.17,-32.9 -4.99,-6.59 -13.44,-9.86 -25.47,-9.86l-52.37 0 0 107.3 -47.43 0zm47.43 -153.46l54.24 0c12.28,0 21.37,-3.02 27.32,-9.1 5.96,-6.08 8.9,-15.43 8.9,-28.04 0,-12.61 -2.75,-22.02 -8.25,-28.1 -5.5,-6.15 -13.97,-9.21 -25.36,-9.21l-56.85 0 0 74.44z"/>
  <polygon class="fil4" points="10376.11,5538.24 10376.11,5262.5 10423.56,5262.5 10423.56,5376.91 10510.96,5262.5 10572.28,5262.5 10572.28,5262.5 10478.73,5376.52 10478.73,5376.52 10576.25,5538.24 10515.11,5538.24 10515.11,5538.24 10445.76,5416.67 10445.76,5416.67 10423.56,5443.68 10423.56,5538.24 "/>
 </g>
</svg>
