<?xml version="1.0" encoding="UTF-8"?><svg xmlns="http://www.w3.org/2000/svg" viewBox="0 0 26 26"><defs><style>.d{fill:#fff;}</style></defs><g id="a"/><g id="b"><g><path class="d" d="M13.55,22.89c-1.96,0-3.91-.66-5.51-1.7-4.05-2.64-6.53-7.97-3.43-13.03C8.99,1,16.66,3.55,16.74,3.57c.28,.1,.44,.38,.39,.67,.14-.04,.29-.02,.43,.06,.17,.09,4.04,2.26,5.02,6.41,.63,2.66-.08,5.49-2.11,8.41-1.87,2.7-4.41,3.77-6.91,3.77Zm-.12-18.62c-2.32,0-5.53,.79-7.81,4.51-2.71,4.42-.51,9.09,3.06,11.42,3.29,2.14,7.9,2.43,10.8-1.75,1.82-2.63,2.47-5.14,1.93-7.45-.85-3.63-4.4-5.63-4.44-5.65-.23-.13-.34-.38-.3-.63-.11,.03-.22,.02-.33-.01-.12-.04-1.3-.43-2.93-.43Z"/><path class="d" d="M12.97,20.24c-.23,0-.43-.16-.49-.39-.06-.27,.11-.54,.38-.6,2.63-.61,3.95-1.01,5.18-3.62,1.24-2.65,.78-5.05-1.38-7.14-.2-.19-.2-.51-.01-.71,.19-.2,.51-.2,.71-.01,2.47,2.39,3.02,5.26,1.59,8.29-1.41,3.01-3.15,3.55-5.86,4.17-.04,0-.08,.01-.11,.01Z"/><path class="d" d="M13.04,8.58c-.28,0-.5-.22-.5-.5v-1.68c0-.28,.22-.5,.5-.5s.5,.22,.5,.5v1.68c0,.28-.22,.5-.5,.5Z"/><path class="d" d="M8.09,12.75h-1.71c-.28,0-.5-.22-.5-.5s.22-.5,.5-.5h1.71c.28,0,.5,.22,.5,.5s-.22,.5-.5,.5Z"/><path class="d" d="M9.65,10c-.15,0-.3-.07-.4-.2l-1.03-1.37c-.17-.22-.12-.54,.1-.7,.22-.17,.54-.12,.7,.1l1.03,1.37c.17,.22,.12,.54-.1,.7-.09,.07-.2,.1-.3,.1Z"/><path class="d" d="M7.41,17.05c-.15,0-.3-.07-.4-.2-.17-.22-.12-.54,.1-.7l1.37-1.03c.22-.17,.54-.12,.7,.1,.17,.22,.12,.54-.1,.7l-1.37,1.03c-.09,.07-.2,.1-.3,.1Z"/><path class="d" d="M10.64,19.91c-.08,0-.17-.02-.25-.07-.24-.14-.32-.44-.18-.68l.93-1.61c.14-.24,.45-.32,.68-.18,.24,.14,.32,.44,.18,.68l-.93,1.61c-.09,.16-.26,.25-.43,.25Z"/><path class="d" d="M10.44,16.89c-.17,0-.32-.08-.41-.23-.09-.15-.09-.34,0-.49l1.89-3.19c.08-.13,.2-.21,.34-.23-1.06-.47-1.01-1.26-.83-2.15,.12-.61,.63-1.15,1.36-1.43,.78-.31,1.58-.27,2.09,.1,.49,.36,.7,.99,.54,1.65-.11,.45-.42,.94-.89,1.19,.25,.08,.42,.13,.48,.15,.13,.04,.32,.16,.38,.29l1.47,3.26c.06,.14,.05,.31-.03,.44-.08,.13-.22,.22-.38,.23l-5.97,.39s-.02,0-.03,0Zm2.34-3.95l.07,.04c.11,.06,.19,.17,.22,.29,.03,.12,.01,.25-.05,.36l-1.11,1.87,3.27-.22-.84-1.87c-.33-.1-.93-.29-1.57-.48Zm.99-1.79h0s0-.06,0-.08c0,.03,0,.05,0,.08Zm-.48-.47c.12,0,.23,.04,.32,.12,.07,.06,.12,.14,.14,.22,.02,0,.06,0,.11,0,.09-.01,.24-.15,.3-.38,.03-.14,.02-.26-.04-.31-.09-.07-.44-.12-.87,.05-.29,.12-.47,.27-.54,.41,.06-.04,.13-.06,.2-.07l.16-.02h0l.17-.02s.04,0,.05,0Z"/></g></g><g id="c"/></svg>