<?xml version="1.0" encoding="UTF-8"?><svg xmlns="http://www.w3.org/2000/svg" viewBox="0 0 26 26"><defs><style>.d{fill:#fff;}</style></defs><g id="a"/><g id="b"><g><path class="d" d="M12.3,14.03c-.03-.13-.12-.24-.23-.31l-.37-.22c-.24-.14-.54-.06-.69,.18l-2.44,4.12c-.09,.16-.09,.36,0,.52,.09,.15,.25,.24,.43,.24,.01,0,.02,0,.03,0l7.71-.51c.16-.01,.31-.1,.4-.24,.08-.14,.09-.31,.03-.46l-1.9-4.21c-.06-.13-.27-.26-.41-.31-.08-.03-.43-.14-.92-.29,.74-.24,1.21-.94,1.37-1.59,.2-.81-.05-1.58-.65-2.01-.63-.46-1.62-.5-2.59-.12-.91,.36-1.54,1.02-1.68,1.76-.25,1.28-.29,2.3,1.58,2.85,.9,.26,1.74,.53,2.18,.67l1.18,2.62-4.62,.3,1.54-2.6c.07-.11,.09-.25,.05-.38Zm1.63-3.42c-.08,.33-.31,.55-.48,.58-.19,.03-.25,0-.26,.06,0-.14-.06-.27-.17-.37-.11-.1-.25-.14-.39-.12l-.21,.02h-.02l-.19,.02c-.13,.01-.25,.08-.34,.18-.08,.1-.12,.24-.11,.37,0,.07,.04,.31,.2,.58-.36-.14-.32-.31-.17-1.08,.05-.26,.37-.54,.8-.71,.29-.11,.55-.15,.76-.15s.39,.04,.46,.1c.12,.09,.16,.28,.1,.52Z"/><path class="d" d="M22.95,7.54c-2.9-5.29-9.43-3.61-14.21-2.38l-.13,.03c-.34,.09-.68,.17-1,.25-1.33,.33-2.71,.73-3.75,1.75-1.16,1.14-1.55,2.72-1.77,3.98-.3,1.77-.37,3.57-.21,5.35,.09,.93,.25,2.01,.82,2.96,.78,1.3,2.26,2.22,4.07,2.51,.48,.08,.99,.12,1.54,.12,1.01,0,2-.13,2.99-.26,.13-.02,.25-.09,.33-.19s.12-.24,.1-.37l-.04-.32c-.04-.28-.29-.47-.56-.43-1.37,.18-2.79,.37-4.15,.15-1.42-.23-2.56-.92-3.14-1.88-.43-.72-.56-1.62-.64-2.4-.16-1.67-.09-3.35,.19-5,.18-1.06,.51-2.39,1.39-3.25,.8-.78,1.99-1.13,3.14-1.41,.37-.09,.75-.19,1.14-.29,4.35-1.12,10.32-2.65,12.72,1.74,1.17,2.13,1.16,4.74,1.03,6.77-.09,1.33-.25,2.4-.75,3.31-1.28,2.34-4.86,2.16-7.65,1.61-.13-.03-.27,0-.38,.07-.11,.07-.19,.19-.21,.32l-.06,.32c-.05,.27,.12,.53,.39,.59,5.83,1.16,8.15-.59,9.07-2.27,.68-1.25,.83-2.65,.91-3.85,.15-2.21,.14-5.06-1.19-7.49Z"/></g></g><g id="c"/></svg>