<?xml version="1.0" encoding="UTF-8"?><svg xmlns="http://www.w3.org/2000/svg" viewBox="0 0 26 26"><defs><style>.d{fill:#fff;}</style></defs><g id="a"/><g id="b"><g><path class="d" d="M22.84,8.78c.05-1.18,.1-2.39-.08-3.57-.03-.22-.08-.46-.21-.65-.3-.45-.89-.53-1.22-.54-1.42-.04-2.86-.05-4.3-.05-1.83,0-3.67,.02-5.47,.05h-.04c-1.59,.02-3.58,.05-5.44,.05-1.24,0-2.11,.26-2.59,.77-.37,.4-.35,.82-.35,.82l.29,12.59,.03,.12c.03,.09,.43,.47,1.02,.76,.59,.3,1.33,.3,2.05,.3,.22,0,.44,0,.65,.01l3.27,.14c.37,.02,.82,.09,1.02,.48,.09,.18,.1,.38,.02,.58-.1,.26-.33,.48-.61,.59-.2,.08-.4,.11-.6,.13-.16,.02-.28,.04-.4,.08-.22,.07-.39,.25-.36,.38,.04,.17,.38,.24,.68,.24,2.16,0,4.33-.13,6.46-.36,.17-.02,.3-.04,.39-.1,.06-.05,.1-.12,.1-.21,0-.16-.07-.34-.19-.44-.24-.21-.61-.27-1.03-.33-.05,0-.12-.01-.21-.02-.88-.09-1.47-.18-1.54-.58-.06-.35,.36-.55,.51-.63,.59-.29,1.49-.25,2.21-.21h.05c.17,0,.33,.02,.48,.02,.34,0,.74,.04,1.17,.09h.06c1.49,.17,3.32,.36,3.96-.88l.15-.3,.06-.29c.05-.74,.05-1.77-.02-3.04,0-.09,0-.15,0-.16v-4.15c0-.52,.02-1.06,.04-1.58v-.08Zm-1.32,5.1c0,.71-.58,1.29-1.29,1.29H5.92c-.71,0-1.29-.58-1.29-1.29V6.82c0-.71,.58-1.29,1.29-1.29h14.31c.71,0,1.29,.58,1.29,1.29v7.06Z"/><path class="d" d="M22.89,18.41v.02h0v-.02Z"/></g></g><g id="c"/></svg>