<?xml version="1.0" encoding="UTF-8"?><svg xmlns="http://www.w3.org/2000/svg" viewBox="0 0 26 26"><defs><style>.d{fill:#231f20;}</style></defs><g id="a"/><g id="b"><path class="d" d="M22.9,9.98c-.39-.89-1.11-1.57-2.02-1.9-.22-.08-.5-.12-.76-.1-.01-.09-.02-.19-.03-.28-.08-.74-.16-1.51-.74-2.28-.75-1.01-1.83-1.52-2.61-1.76-1.88-.6-4.54-.4-5.96,1.5-.03,.04-.06,.08-.09,.12-.58-.15-1.16-.16-1.77-.01-.77,.18-1.45,.67-2.08,1.53-.19,.25-.44,.6-.53,.99-.05,0-.09,0-.14,0-1.93-.06-2.99,2.26-3.27,3.48-.35,1.54,.13,2.62,1.32,2.96,.26,.07,.54-.08,.62-.35s-.08-.54-.35-.62c-.24-.07-.96-.27-.62-1.77,.24-1.06,1.11-2.72,2.27-2.7,.19,0,.33,.03,.44,.06,.15,.16,.36,.27,.6,.28,.21,.02,.39-.11,.48-.3,.08-.19,.04-.41-.11-.55-.08-.08-.17-.15-.28-.21,0-.17,.24-.49,.36-.65l.06-.08c.43-.59,.92-.95,1.44-1.07,.49-.11,.94-.1,1.46,.05,.02,0,.06,.02,.1,.03h0c.18,.17,.37,.24,.57,.21,.16-.03,.29-.13,.36-.27,.07-.14,.07-.31,0-.45-.01-.03-.03-.05-.04-.07l.02-.02c1.1-1.47,3.28-1.61,4.83-1.11,.64,.2,1.52,.61,2.11,1.41,.41,.55,.47,1.13,.54,1.79,.03,.31,.07,.64,.14,.97,.04,.18,.18,.33,.36,.38,.18,.05,.37,0,.5-.14,.05-.05,.24-.07,.45,0,.65,.23,1.16,.72,1.44,1.36,.28,.64,.29,1.38,.02,2.03-.56,1.33-2.07,1.71-3.53,2.08l-.48,.12c-1.52,.4-3.11,.75-4.67,.75h-.02c0-.05,.01-.11,.02-.16,.12-.9,.27-1.92-.06-2.86-.19-.55-.6-.97-1.08-1.12-.37-.11-.78-.08-1.18,.09-1.02,.44-2.07,1.91-1.86,3.06,.09,.51,.42,.98,.91,1.31,.35,.23,.77,.39,1.33,.5,.28,.05,.55,.1,.83,.13-.04,.77-.06,1.88-.08,2.95,0,.05,0,.09,0,.14h-.89c-.44,0-.82,.21-.97,.55-.12,.28-.08,.58,.13,.82l1.33,1.53c.19,.22,.5,.35,.84,.35h0c.34,0,.65-.13,.84-.35l1.33-1.53c.21-.24,.25-.54,.13-.82-.15-.33-.53-.55-.97-.55h-.77s0-.08,0-.12c.02-1.02,.03-2.15,.08-2.91,1.69,0,3.42-.35,5.04-.79l.47-.12c1.54-.39,3.46-.88,4.21-2.66,.38-.89,.37-1.92-.03-2.82Zm-11.33,5.22c-.42-.08-.73-.2-.97-.36-.26-.17-.44-.41-.48-.66-.12-.64,.64-1.68,1.28-1.96,.12-.05,.23-.08,.33-.08,.05,0,.1,0,.15,.02,.18,.06,.35,.25,.43,.5,.25,.71,.13,1.57,.02,2.39-.01,.08-.02,.16-.03,.24-.24-.03-.49-.06-.73-.11Z"/></g><g id="c"/></svg>